<svg xmlns="http://www.w3.org/2000/svg" viewBox="0 0 64 80" width="64" height="80">
  <defs>
    <radialGradient id="fill" cx="50%" cy="38%" r="62%">
      <stop offset="0%"   stop-color="#2B6CB0"/>
      <stop offset="100%" stop-color="#0D2B52"/>
    </radialGradient>
    <radialGradient id="glow" cx="50%" cy="50%" r="50%">
      <stop offset="0%"   stop-color="#4299E1" stop-opacity="0.55"/>
      <stop offset="100%" stop-color="#4299E1" stop-opacity="0"/>
    </radialGradient>
    <filter id="drop" x="-30%" y="-20%" width="160%" height="160%">
      <feDropShadow dx="0" dy="2" stdDeviation="4" flood-color="#4299E1" flood-opacity="0.6"/>
    </filter>
  </defs>
  <ellipse cx="32" cy="42" rx="32" ry="38" fill="url(#glow)"/>
  <path d="M32,76 C13,67 5,55 5,43 L5,12 Q5,5 12,5 L52,5 Q59,5 59,12 L59,43 C59,55 51,67 32,76 Z"
        fill="url(#fill)" stroke="#4299E1" stroke-width="1.5" filter="url(#drop)"/>
  <path d="M32,74 C15,65 7,54 7,43 L7,13 Q7,7 13,7 L51,7 Q57,7 57,13 L57,43 C57,54 49,65 32,74 Z"
        fill="none" stroke="rgba(255,255,255,0.18)" stroke-width="1"/>
  <path d="M14,8 Q14,7 20,7 L44,7 Q50,7 50,8 L50,22 Q32,28 14,22 Z"
        fill="rgba(255,255,255,0.10)" stroke="none"/>
  <path d="M32,76 C13,67 5,55 5,43 L5,12 Q5,5 12,5 L52,5 Q59,5 59,12 L59,43 C59,55 51,67 32,76 Z"
        fill="none" stroke="rgba(144,205,244,0.4)" stroke-width="0.6"/>
</svg>
