<svg xmlns="http://www.w3.org/2000/svg" viewBox="0 0 64 80" width="128" height="160">
  <defs>
    <radialGradient id="f" cx="50%" cy="38%" r="62%">
      <stop offset="0%" stop-color="#1D6FA8"/>
      <stop offset="100%" stop-color="#061428"/>
    </radialGradient>
    <radialGradient id="g" cx="50%" cy="50%" r="50%">
      <stop offset="0%" stop-color="#00A2FF" stop-opacity="0.5"/>
      <stop offset="100%" stop-color="#00A2FF" stop-opacity="0"/>
    </radialGradient>
    <filter id="d" x="-30%" y="-20%" width="160%" height="160%">
      <feDropShadow dx="0" dy="2" stdDeviation="4" flood-color="#00A2FF" flood-opacity="0.6"/>
    </filter>
  </defs>
  <ellipse cx="32" cy="42" rx="32" ry="38" fill="url(#g)"/>
  <path d="M32,76 C13,67 5,55 5,43 L5,12 Q5,5 12,5 L52,5 Q59,5 59,12 L59,43 C59,55 51,67 32,76 Z" fill="url(#f)" stroke="#00A2FF" stroke-width="1.5" filter="url(#d)"/>
  <path d="M32,74 C15,65 7,54 7,43 L7,13 Q7,7 13,7 L51,7 Q57,7 57,13 L57,43 C57,54 49,65 32,74 Z" fill="none" stroke="rgba(255,255,255,0.17)" stroke-width="1"/>
  <path d="M14,8 Q14,7 20,7 L44,7 Q50,7 50,8 L50,22 Q32,28 14,22 Z" fill="rgba(255,255,255,0.09)"/>
  <path d="M32,76 C13,67 5,55 5,43 L5,12 Q5,5 12,5 L52,5 Q59,5 59,12 L59,43 C59,55 51,67 32,76 Z" fill="none" stroke="#BAE6FD" stroke-width="0.6" opacity="0.45"/>
  <text x="32" y="34" text-anchor="middle" dominant-baseline="middle" font-size="22" font-weight="900" font-family="system-ui,-apple-system,sans-serif" fill="rgba(255,255,255,0.95)" letter-spacing="-0.5">C</text>
  <text x="32" y="60" text-anchor="middle" dominant-baseline="middle" font-size="15" font-weight="700" font-family="system-ui,-apple-system,sans-serif" fill="rgba(255,255,255,0.85)">Ø</text>
</svg>