<?xml version="1.0" encoding="UTF-8"?>
<svg xmlns="http://www.w3.org/2000/svg" width="800" height="554" viewBox="0 0 800 554" role="img" aria-label="Evidence Map Image">
  <defs>
    <linearGradient id="bg" x1="0" x2="1" y1="0" y2="1">
      <stop offset="0%" stop-color="#07111f"/>
      <stop offset="100%" stop-color="#0f172a"/>
    </linearGradient>
    <filter id="glow"><feGaussianBlur stdDeviation="3" result="blur"/><feMerge><feMergeNode in="blur"/><feMergeNode in="SourceGraphic"/></feMerge></filter>
  </defs>
  <rect width="100%" height="100%" rx="18" fill="url(#bg)"/>
  <rect x="10" y="10" width="780" height="534" rx="16" fill="rgba(255,255,255,0.04)" stroke="#38bdf8" stroke-opacity="0.32"/>
  <text x="28" y="42" fill="#38bdf8" font-family="Inter, Arial, sans-serif" font-size="18" font-weight="700">Evidence Map Image</text>
  
      <rect x="30" y="62" width="260" height="48" rx="10" fill="#0b2038" stroke="#38bdf8" stroke-opacity="0.42"/>
      <text x="44" y="81" fill="#e5f5ff" font-family="Inter, Arial" font-size="12">Ten studies conducted between 2022 and ...</text>
      <line x1="292" y1="86" x2="468" y2="86" stroke="#f87171" stroke-width="3" filter="url(#glow)"/>
      <rect x="324" y="71" width="112" height="30" rx="15" fill="#f87171" fill-opacity="0.16" stroke="#f87171"/>
      <text x="343" y="91" fill="#f87171" font-family="Inter, Arial" font-size="12" font-weight="700">refutes</text>
      <rect x="470" y="62" width="300" height="48" rx="10" fill="#0d261c" stroke="#22c55e" stroke-opacity="0.42"/>
      <text x="484" y="81" fill="#ecfdf5" font-family="Inter, Arial" font-size="12">There is no evidence that electromagnetic fie...</text>
      <rect x="30" y="136" width="260" height="48" rx="10" fill="#0b2038" stroke="#38bdf8" stroke-opacity="0.42"/>
      <text x="44" y="155" fill="#e5f5ff" font-family="Inter, Arial" font-size="12">Ten studies conducted between 2022 and ...</text>
      <line x1="292" y1="160" x2="468" y2="160" stroke="#f87171" stroke-width="3" filter="url(#glow)"/>
      <rect x="324" y="145" width="112" height="30" rx="15" fill="#f87171" fill-opacity="0.16" stroke="#f87171"/>
      <text x="343" y="165" fill="#f87171" font-family="Inter, Arial" font-size="12" font-weight="700">refutes</text>
      <rect x="470" y="136" width="300" height="48" rx="10" fill="#0d261c" stroke="#22c55e" stroke-opacity="0.42"/>
      <text x="484" y="155" fill="#ecfdf5" font-family="Inter, Arial" font-size="12">The Federal Communications Commission (FCC) r...</text>
      <rect x="30" y="210" width="260" height="48" rx="10" fill="#0b2038" stroke="#38bdf8" stroke-opacity="0.42"/>
      <text x="44" y="229" fill="#e5f5ff" font-family="Inter, Arial" font-size="12">Ten studies conducted between 2022 and ...</text>
      <line x1="292" y1="234" x2="468" y2="234" stroke="#f87171" stroke-width="3" filter="url(#glow)"/>
      <rect x="324" y="219" width="112" height="30" rx="15" fill="#f87171" fill-opacity="0.16" stroke="#f87171"/>
      <text x="343" y="239" fill="#f87171" font-family="Inter, Arial" font-size="12" font-weight="700">refutes</text>
      <rect x="470" y="210" width="300" height="48" rx="10" fill="#0d261c" stroke="#22c55e" stroke-opacity="0.42"/>
      <text x="484" y="229" fill="#ecfdf5" font-family="Inter, Arial" font-size="12">There is no evidence that 5G technology is ha...</text>
      <rect x="30" y="284" width="260" height="48" rx="10" fill="#0b2038" stroke="#38bdf8" stroke-opacity="0.42"/>
      <text x="44" y="303" fill="#e5f5ff" font-family="Inter, Arial" font-size="12">Ten studies conducted between 2022 and ...</text>
      <line x1="292" y1="308" x2="468" y2="308" stroke="#f87171" stroke-width="3" filter="url(#glow)"/>
      <rect x="324" y="293" width="112" height="30" rx="15" fill="#f87171" fill-opacity="0.16" stroke="#f87171"/>
      <text x="343" y="313" fill="#f87171" font-family="Inter, Arial" font-size="12" font-weight="700">refutes</text>
      <rect x="470" y="284" width="300" height="48" rx="10" fill="#0d261c" stroke="#22c55e" stroke-opacity="0.42"/>
      <text x="484" y="303" fill="#ecfdf5" font-family="Inter, Arial" font-size="12">There is no evidence that 5G technology is ha...</text>
      <rect x="30" y="358" width="260" height="48" rx="10" fill="#0b2038" stroke="#38bdf8" stroke-opacity="0.42"/>
      <text x="44" y="377" fill="#e5f5ff" font-family="Inter, Arial" font-size="12">Over 400 scientists and doctors have su...</text>
      <line x1="292" y1="382" x2="468" y2="382" stroke="#f87171" stroke-width="3" filter="url(#glow)"/>
      <rect x="324" y="367" width="112" height="30" rx="15" fill="#f87171" fill-opacity="0.16" stroke="#f87171"/>
      <text x="343" y="387" fill="#f87171" font-family="Inter, Arial" font-size="12" font-weight="700">refutes</text>
      <rect x="470" y="358" width="300" height="48" rx="10" fill="#0d261c" stroke="#22c55e" stroke-opacity="0.42"/>
      <text x="484" y="377" fill="#ecfdf5" font-family="Inter, Arial" font-size="12">A group of 250 scientists and medical doctors...</text>
      <rect x="30" y="432" width="260" height="48" rx="10" fill="#0b2038" stroke="#38bdf8" stroke-opacity="0.42"/>
      <text x="44" y="451" fill="#e5f5ff" font-family="Inter, Arial" font-size="12">February 2024 research indicated signif...</text>
      <line x1="292" y1="456" x2="468" y2="456" stroke="#22c55e" stroke-width="3" filter="url(#glow)"/>
      <rect x="324" y="441" width="112" height="30" rx="15" fill="#22c55e" fill-opacity="0.16" stroke="#22c55e"/>
      <text x="343" y="461" fill="#22c55e" font-family="Inter, Arial" font-size="12" font-weight="700">supports</text>
      <rect x="470" y="432" width="300" height="48" rx="10" fill="#0d261c" stroke="#22c55e" stroke-opacity="0.42"/>
      <text x="484" y="451" fill="#ecfdf5" font-family="Inter, Arial" font-size="12">Experimental studies indicate sufficient evid...</text>
</svg>