<?xml version="1.0" encoding="UTF-8"?>
<svg xmlns="http://www.w3.org/2000/svg" width="800" height="390" viewBox="0 0 800 390" role="img" aria-label="Verimeter Graphic">
  <defs>
    <linearGradient id="bg" x1="0" x2="1" y1="0" y2="1">
      <stop offset="0%" stop-color="#07111f"/>
      <stop offset="100%" stop-color="#0f172a"/>
    </linearGradient>
    <filter id="glow"><feGaussianBlur stdDeviation="3" result="blur"/><feMerge><feMergeNode in="blur"/><feMergeNode in="SourceGraphic"/></feMerge></filter>
  </defs>
  <rect width="100%" height="100%" rx="18" fill="url(#bg)"/>
  <rect x="10" y="10" width="780" height="370" rx="16" fill="rgba(255,255,255,0.04)" stroke="#38bdf8" stroke-opacity="0.32"/>
  <text x="28" y="42" fill="#38bdf8" font-family="Inter, Arial, sans-serif" font-size="18" font-weight="700">Verimeter Graphic</text>
  
    <path d="M 325.00 100.10 A 150 150 0 0 0 250.00 230.00" fill="none" stroke="#f87171" stroke-width="24" stroke-linecap="round" opacity="0.78"/>
    <path d="M 475.00 100.10 A 150 150 0 0 0 325.00 100.10" fill="none" stroke="#fbbf24" stroke-width="24" stroke-linecap="round" opacity="0.78"/>
    <path d="M 550.00 230.00 A 150 150 0 0 0 475.00 100.10" fill="none" stroke="#22c55e" stroke-width="24" stroke-linecap="round" opacity="0.78"/>
    <path d="M 550.00 230.00 A 150 150 0 0 0 250.00 230.00" fill="none" stroke="rgba(255,255,255,0.22)" stroke-width="2"/>
    <line x1="400" y1="230" x2="310.21" y2="159.76" stroke="#f87171" stroke-width="7" stroke-linecap="round" filter="url(#glow)"/>
    <circle cx="400" cy="230" r="13" fill="#f87171" stroke="#e5f5ff" stroke-width="2"/>
    <text x="400" y="178" text-anchor="middle" fill="#f8fafc" font-family="Inter, Arial" font-size="42" font-weight="900">-58%</text>
    <text x="400" y="207" text-anchor="middle" fill="#94a3b8" font-family="Inter, Arial" font-size="14">Verimeter claim-link score</text>
    <text x="250" y="262" text-anchor="middle" fill="#f87171" font-family="Inter, Arial" font-size="13" font-weight="700">REFUTED</text>
    <text x="400" y="288" text-anchor="middle" fill="#fbbf24" font-family="Inter, Arial" font-size="13" font-weight="700">MIXED</text>
    <text x="550" y="262" text-anchor="middle" fill="#22c55e" font-family="Inter, Arial" font-size="13" font-weight="700">SUPPORTED</text>
    <rect x="85" y="316" width="190" height="44" rx="12" fill="#2b1118" stroke="#f87171" stroke-opacity="0.42"/>
    <text x="102" y="344" fill="#fecaca" font-family="Inter, Arial" font-size="13">Con weight: 79%</text>
    <rect x="305" y="316" width="190" height="44" rx="12" fill="#111827" stroke="#38bdf8" stroke-opacity="0.42"/>
    <text x="322" y="344" fill="#e0f2fe" font-family="Inter, Arial" font-size="13">Links: 5</text>
    <rect x="525" y="316" width="190" height="44" rx="12" fill="#0d261c" stroke="#22c55e" stroke-opacity="0.42"/>
    <text x="542" y="344" fill="#dcfce7" font-family="Inter, Arial" font-size="13">Pro weight: 21%</text>
</svg>