<?xml version="1.0" encoding="UTF-8"?>
<svg xmlns="http://www.w3.org/2000/svg" width="800" height="432" viewBox="0 0 800 432" role="img" aria-label="Claim-Link Mini Graphics">
  <defs>
    <linearGradient id="bg" x1="0" x2="1" y1="0" y2="1">
      <stop offset="0%" stop-color="#07111f"/>
      <stop offset="100%" stop-color="#0f172a"/>
    </linearGradient>
    <filter id="glow"><feGaussianBlur stdDeviation="3" result="blur"/><feMerge><feMergeNode in="blur"/><feMergeNode in="SourceGraphic"/></feMerge></filter>
  </defs>
  <rect width="100%" height="100%" rx="18" fill="url(#bg)"/>
  <rect x="10" y="10" width="780" height="412" rx="16" fill="rgba(255,255,255,0.04)" stroke="#38bdf8" stroke-opacity="0.32"/>
  <text x="28" y="42" fill="#38bdf8" font-family="Inter, Arial, sans-serif" font-size="18" font-weight="700">Claim-Link Mini Graphics</text>
  
      <rect x="36" y="66" width="250" height="40" rx="10" fill="#0b2038" stroke="#38bdf8" stroke-opacity="0.42"/>
      <text x="50" y="91" fill="#e0f2fe" font-family="Inter, Arial" font-size="12">Ten studies conducted between 2022 ...</text>
      <line x1="288" y1="86" x2="512" y2="86" stroke="#f87171" stroke-width="3"/>
      <text x="370" y="78" fill="#f87171" font-family="Inter, Arial" font-size="12">refutes</text>
      <text x="364" y="101" fill="#94a3b8" font-family="Inter, Arial" font-size="11">-0.95</text>
      <rect x="514" y="66" width="250" height="40" rx="10" fill="#0d261c" stroke="#22c55e" stroke-opacity="0.42"/>
      <text x="528" y="84" fill="#dcfce7" font-family="Inter, Arial" font-size="12">The International Telecommuni...</text>
      <text x="528" y="100" fill="#94a3b8" font-family="Inter, Arial" font-size="10">There is no evidence that electro...</text>
      <rect x="36" y="130" width="250" height="40" rx="10" fill="#0b2038" stroke="#38bdf8" stroke-opacity="0.42"/>
      <text x="50" y="155" fill="#e0f2fe" font-family="Inter, Arial" font-size="12">Ten studies conducted between 2022 ...</text>
      <line x1="288" y1="150" x2="512" y2="150" stroke="#f87171" stroke-width="3"/>
      <text x="370" y="142" fill="#f87171" font-family="Inter, Arial" font-size="12">refutes</text>
      <text x="364" y="165" fill="#94a3b8" font-family="Inter, Arial" font-size="11">-0.95</text>
      <rect x="514" y="130" width="250" height="40" rx="10" fill="#0d261c" stroke="#22c55e" stroke-opacity="0.42"/>
      <text x="528" y="148" fill="#dcfce7" font-family="Inter, Arial" font-size="12">5gamericas</text>
      <text x="528" y="164" fill="#94a3b8" font-family="Inter, Arial" font-size="10">The Federal Communications Commis...</text>
      <rect x="36" y="194" width="250" height="40" rx="10" fill="#0b2038" stroke="#38bdf8" stroke-opacity="0.42"/>
      <text x="50" y="219" fill="#e0f2fe" font-family="Inter, Arial" font-size="12">Ten studies conducted between 2022 ...</text>
      <line x1="288" y1="214" x2="512" y2="214" stroke="#f87171" stroke-width="3"/>
      <text x="370" y="206" fill="#f87171" font-family="Inter, Arial" font-size="12">refutes</text>
      <text x="364" y="229" fill="#94a3b8" font-family="Inter, Arial" font-size="11">-0.95</text>
      <rect x="514" y="194" width="250" height="40" rx="10" fill="#0d261c" stroke="#22c55e" stroke-opacity="0.42"/>
      <text x="528" y="212" fill="#dcfce7" font-family="Inter, Arial" font-size="12">Fullfact</text>
      <text x="528" y="228" fill="#94a3b8" font-family="Inter, Arial" font-size="10">There is no evidence that 5G tech...</text>
      <rect x="36" y="258" width="250" height="40" rx="10" fill="#0b2038" stroke="#38bdf8" stroke-opacity="0.42"/>
      <text x="50" y="283" fill="#e0f2fe" font-family="Inter, Arial" font-size="12">Ten studies conducted between 2022 ...</text>
      <line x1="288" y1="278" x2="512" y2="278" stroke="#f87171" stroke-width="3"/>
      <text x="370" y="270" fill="#f87171" font-family="Inter, Arial" font-size="12">refutes</text>
      <text x="364" y="293" fill="#94a3b8" font-family="Inter, Arial" font-size="11">-0.95</text>
      <rect x="514" y="258" width="250" height="40" rx="10" fill="#0d261c" stroke="#22c55e" stroke-opacity="0.42"/>
      <text x="528" y="276" fill="#dcfce7" font-family="Inter, Arial" font-size="12">Fullfact</text>
      <text x="528" y="292" fill="#94a3b8" font-family="Inter, Arial" font-size="10">There is no evidence that 5G tech...</text>
      <rect x="36" y="322" width="250" height="40" rx="10" fill="#0b2038" stroke="#38bdf8" stroke-opacity="0.42"/>
      <text x="50" y="347" fill="#e0f2fe" font-family="Inter, Arial" font-size="12">Over 400 scientists and doctors hav...</text>
      <line x1="288" y1="342" x2="512" y2="342" stroke="#f87171" stroke-width="3"/>
      <text x="370" y="334" fill="#f87171" font-family="Inter, Arial" font-size="12">refutes</text>
      <text x="364" y="357" fill="#94a3b8" font-family="Inter, Arial" font-size="11">-0.9</text>
      <rect x="514" y="322" width="250" height="40" rx="10" fill="#0d261c" stroke="#22c55e" stroke-opacity="0.42"/>
      <text x="528" y="340" fill="#dcfce7" font-family="Inter, Arial" font-size="12">Tacinterconnections</text>
      <text x="528" y="356" fill="#94a3b8" font-family="Inter, Arial" font-size="10">A group of 250 scientists and med...</text>
</svg>